name C:\Users\u0101727\Documents\MyRepositories\upper-imu-dc\Results\main_tracking\Case_66\kinematics.mot
datacolumns 10
datarows 56
range 2.00000000 2.55000000
endheader 
time	clav_prot	clav_elev	scapula_abduction	scapula_elevation	scapula_upward_rot	scapula_winging	plane_elv	shoulder_elv	axial_rot	
          2.00000000	        -24.81632025	          4.08296866	         10.01916246	         -4.64394631	         52.12027075	         -4.97061559	         61.34853469	         71.12044634	        -20.96308256	
          2.01000000	        -25.01155125	          4.17722738	          9.97885812	         -4.61353625	         52.51572196	         -5.04177228	         61.13110751	         71.43441786	        -20.78406259	
          2.02000000	        -25.20312186	          4.26405741	          9.93999834	         -4.58680427	         52.90252836	         -5.10984664	         60.91189661	         71.74768783	        -20.59188820	
          2.03000000	        -25.39088214	          4.34358773	          9.90304030	         -4.56371242	         53.28099144	         -5.17490475	         60.69153880	         72.06012645	        -20.38847305	
          2.04000000	        -25.57476689	          4.41604669	          9.86838890	         -4.54416290	         53.65155745	         -5.23704833	         60.47059385	         72.37155467	        -20.17603700	
          2.05000000	        -25.75478901	          4.48175461	          9.83639589	         -4.52800071	         54.01479969	         -5.29641158	         60.24953680	         72.68174509	        -19.95702663	
          2.06000000	        -25.93103079	          4.54111022	          9.80735882	         -4.51502051	         54.37139474	         -5.35315578	         60.02875445	         72.99043094	        -19.73401587	
          2.07000000	        -26.10363438	          4.59457344	          9.78151720	         -4.50497602	         54.72209224	         -5.40746259	         59.80854901	         73.29732302	        -19.50958676	
          2.08000000	        -26.27279268	          4.64264776	          9.75904363	         -4.49758969	         55.06767981	         -5.45952716	         59.58914910	         73.60213296	        -19.28619411	
          2.09000000	        -26.43874179	          4.68586535	          9.74003004	         -4.49256106	         55.40894631	         -5.50955232	         59.37072568	         73.90459909	        -19.06602361	
          2.10000000	        -26.60175575	          4.72477673	          9.72447106	         -4.48957238	         55.74664792	         -5.55774475	         59.15340921	         74.20451018	        -18.85085732	
          2.11000000	        -26.76214318	          4.75994643	          9.71224859	         -4.48829099	         56.08148140	         -5.60431369	         58.93730345	         74.50172280	        -18.64196347	
          2.12000000	        -26.92024454	          4.79195507	          9.70312219	         -4.48836776	         56.41406760	         -5.64947229	         58.72249266	         74.79616922	        -18.44002817	
          2.13000000	        -27.07642832	          4.82140693	          9.69672937	         -4.48943218	         56.74494592	         -5.69344108	         58.50903995	         75.08785539	        -18.24514261	
          2.14000000	        -27.23108426	          4.84893928	          9.69259780	         -4.49108644	         57.07457726	         -5.73645172	         58.29697678	         75.37685128	        -18.05685100	
          2.15000000	        -27.38461290	          4.87522750	          9.69016876	         -4.49290212	         57.40335123	         -5.77874911	         58.08628512	         75.66327786	        -17.87425133	
          2.16000000	        -27.53741196	          4.90098071	          9.68882881	         -4.49442338	         57.73159372	         -5.82058984	         57.87687628	         75.94729428	        -17.69612842	
          2.17000000	        -27.68986136	          4.92692611	          9.68794512	         -4.49517754	         58.05957291	         -5.86223661	         57.66857140	         76.22908670	        -17.52109273	
          2.18000000	        -27.84230958	          4.95378565	          9.68689912	         -4.49469122	         58.38750387	         -5.90394998	         57.46108932	         76.50885843	        -17.34770505	
          2.19000000	        -27.99506336	          4.98225049	          9.68511434	         -4.49250789	         58.71555286	         -5.94597935	         57.25404615	         76.78682010	        -17.17457854	
          2.20000000	        -28.14838180	          5.01295913	          9.68207593	         -4.48820321	         59.04384233	         -5.98855531	         57.04696805	         77.06317894	        -17.00045911	
          2.21000000	        -28.30247469	          5.04648254	          9.67734141	         -4.48139570	         59.37245610	         -6.03188416	         56.83931581	         77.33812765	        -16.82428823	
          2.22000000	        -28.45750403	          5.08331656	          9.67054198	         -4.47175243	         59.70144268	         -6.07614494	         56.63051868	         77.61183510	        -16.64525004	
          2.23000000	        -28.61358880	          5.12387950	          9.66137363	         -4.45899120	         60.03081439	         -6.12148842	         56.42001378	         77.88444096	        -16.46279930	
          2.24000000	        -28.77081305	          5.16851132	          9.64957751	         -4.44288184	         60.36054127	         -6.16803716	         56.20728796	         78.15605531	        -16.27666387	
          2.25000000	        -28.92923701	          5.21747181	          9.63491103	         -4.42324845	         60.69054005	         -6.21588630	         55.99191739	         78.42676236	        -16.08681921	
          2.26000000	        -29.08890982	          5.27093617	          9.61711473	         -4.39997358	         61.02066052	         -6.26510439	         55.77360016	         78.69662541	        -15.89343879	
          2.27000000	        -29.24988162	          5.32898865	          9.59588137	         -4.37300405	         61.35067283	         -6.31573446	         55.55217769	         78.96568921	        -15.69683023	
          2.28000000	        -29.41221279	          5.39161546	          9.57083445	         -4.34235715	         61.68025956	         -6.36779501	         55.32764281	         79.23397652	        -15.49736933	
          2.29000000	        -29.57597852	          5.45869893	          9.54152117	         -4.30812574	         62.00901530	         -6.42128113	         55.10013455	         79.50147776	        -15.29544448	
          2.30000000	        -29.74126747	          5.53001497	          9.50742238	         -4.27048069	         62.33645515	         -6.47616569	         54.86992144	         79.76813580	        -15.09142148	
          2.31000000	        -29.90817488	          5.60523521	          9.46797919	         -4.22966955	         62.66203207	         -6.53240063	         54.63737614	         80.03382888	        -14.88563455	
          2.32000000	        -30.07679095	          5.68393490	          9.42263261	         -4.18601053	         62.98516170	         -6.58991844	         54.40294483	         80.29835569	        -14.67840421	
          2.33000000	        -30.24718699	          5.76560646	          9.37087053	         -4.13988215	         63.30525231	         -6.64863380	         54.16711517	         80.56142605	        -14.47007730	
          2.34000000	        -30.41940206	          5.84967810	          9.31227373	         -4.09170894	         63.62173627	         -6.70844578	         53.93038694	         80.82265990	        -14.26107872	
          2.35000000	        -30.59343332	          5.93553576	          9.24655258	         -4.04194479	         63.93409892	         -6.76924067	         53.69324888	         81.08159613	        -14.05195982	
          2.36000000	        -30.76923219	          6.02254674	          9.17356808	         -3.99105534	         64.24190180	         -6.83089567	         53.45616336	         81.33771066	        -13.84342930	
          2.37000000	        -30.94670702	          6.11008286	          9.09333561	         -3.93950090	         64.54479882	         -6.89328343	         53.21955814	         81.59044092	        -13.63635782	
          2.38000000	        -31.12573121	          6.19754143	          9.00601426	         -3.88772146	         64.84254628	         -6.95627699	         52.98382259	         81.83921220	        -13.43175405	
          2.39000000	        -31.30615506	          6.28436254	          8.91188669	         -3.83612437	         65.13500870	         -7.01975476	         52.74930662	         82.08346211	        -13.23071535	
          2.40000000	        -31.48781920	          6.37004249	          8.81133458	         -3.78507503	         65.42216178	         -7.08360506	         52.51632182	         82.32266102	        -13.03436112	
          2.41000000	        -31.67056742	          6.45414378	          8.70481369	         -3.73489001	         65.70409265	         -7.14772993	         52.28514491	         82.55632840	        -12.84376039	
          2.42000000	        -31.85425725	          6.53630226	          8.59283076	         -3.68583210	         65.98099705	         -7.21204823	         52.05602388	         82.78404602	        -12.65986527	
          2.43000000	        -32.03876724	          6.61623157	          8.47592312	         -3.63810722	         66.25317215	         -7.27649757	         51.82918621	         83.00546889	        -12.48345847	
          2.44000000	        -32.22400061	          6.69372455	          8.35464201	         -3.59186340	         66.52100510	         -7.34103504	         51.60484704	         83.22033437	        -12.31511955	
          2.45000000	        -32.40988474	          6.76865137	          8.22954042	         -3.54719196	         66.78495755	         -7.40563637	         51.38321490	         83.42846890	        -12.15521146	
          2.46000000	        -32.59636679	          6.84095415	          8.10116641	         -3.50413108	         67.04554745	         -7.47029342	         51.16449213	         83.62979183	        -12.00388742	
          2.47000000	        -32.78340605	          6.91063777	          7.97006216	         -3.46267187	         67.30332956	         -7.53501000	         50.94886880	         83.82431560	        -11.86111656	
          2.48000000	        -32.97096418	          6.97775787	          7.83676756	         -3.42276653	         67.55887623	         -7.59979629	         50.73651015	         84.01214145	        -11.72672532	
          2.49000000	        -33.15899567	          7.04240723	          7.70182523	         -3.38433750	         67.81275979	         -7.66466292	         50.52753967	         84.19345068	        -11.60044910	
          2.50000000	        -33.34744092	          7.10470276	          7.56578270	         -3.34728657	         68.06553704	         -7.72961593	         50.32202122	         84.36849191	        -11.48198649	
          2.51000000	        -33.53622387	          7.16477535	          7.42918758	         -3.31150238	         68.31773592	         -7.79465383	         50.11994424	         84.53756619	        -11.37104710	
          2.52000000	        -33.72525524	          7.22276467	          7.29257390	         -3.27686481	         68.56984471	         -7.85976792	         49.92121509	         84.70101129	        -11.26738722	
          2.53000000	        -33.91444047	          7.27881991	          7.15644094	         -3.24324579	         68.82230385	         -7.92494579	         49.72565637	         84.85918675	        -11.17083010	
          2.54000000	        -34.10369071	          7.33310516	          7.02122800	         -3.21050695	         69.07550053	         -7.99017741	         49.53301532	         85.01246036	        -11.08127048	
          2.55000000	        -34.29293436	          7.38580694	          6.88728966	         -3.17849599	         69.32976559	         -8.05546219	         49.34298075	         85.16119677	        -10.99866427	
